{"glyphs":{"0":{"ha":1133,"x_min":138,"x_max":996,"o":"m 181 104 l 138 146 l 138 651 l 163 651 l 181 633 l 310 506 l 310 232 l 181 104 m 181 756 l 163 738 l 138 738 l 138 1242 l 181 1285 l 310 1157 l 310 883 l 181 756 m 242 1346 l 283 1389 l 850 1389 l 892 1346 l 764 1217 l 369 1217 l 242 1346 m 892 43 l 850 0 l 283 0 l 242 43 l 369 172 l 764 172 l 892 43 m 953 1285 l 996 1243 l 996 738 l 971 738 l 953 756 l 824 883 l 824 1157 l 953 1285 m 953 633 l 971 651 l 996 651 l 996 146 l 953 104 l 824 232 l 824 506 l 953 633 z "},"1":{"ha":1133,"x_min":824,"x_max":996,"o":"m 953 1285 l 996 1243 l 996 738 l 971 738 l 953 756 l 824 883 l 824 1157 l 953 1285 m 953 633 l 971 651 l 996 651 l 996 146 l 953 104 l 824 232 l 824 506 l 953 633 z "},"2":{"ha":1133,"x_min":138,"x_max":996,"o":"m 181 104 l 138 146 l 138 651 l 163 651 l 181 633 l 310 506 l 310 232 l 181 104 m 807 781 l 892 694 l 807 608 l 326 608 l 242 694 l 326 781 l 807 781 m 242 1346 l 283 1389 l 850 1389 l 892 1346 l 764 1217 l 369 1217 l 242 1346 m 892 43 l 850 0 l 283 0 l 242 43 l 369 172 l 764 172 l 892 43 m 953 1285 l 996 1243 l 996 738 l 971 738 l 953 756 l 824 883 l 824 1157 l 953 1285 z "},"3":{"ha":1133,"x_min":242,"x_max":996,"o":"m 807 781 l 892 694 l 807 608 l 326 608 l 242 694 l 326 781 l 807 781 m 242 1346 l 283 1389 l 850 1389 l 892 1346 l 764 1217 l 369 1217 l 242 1346 m 892 43 l 850 0 l 283 0 l 242 43 l 369 172 l 764 172 l 892 43 m 953 1285 l 996 1243 l 996 738 l 971 738 l 953 756 l 824 883 l 824 1157 l 953 1285 m 953 633 l 971 651 l 996 651 l 996 146 l 953 104 l 824 232 l 824 506 l 953 633 z "},"4":{"ha":1133,"x_min":138,"x_max":996,"o":"m 181 756 l 163 738 l 138 738 l 138 1242 l 181 1285 l 310 1157 l 310 883 l 181 756 m 807 781 l 892 694 l 807 608 l 326 608 l 242 694 l 326 781 l 807 781 m 953 1285 l 996 1243 l 996 738 l 971 738 l 953 756 l 824 883 l 824 1157 l 953 1285 m 953 633 l 971 651 l 996 651 l 996 146 l 953 104 l 824 232 l 824 506 l 953 633 z "},"5":{"ha":1133,"x_min":138,"x_max":996,"o":"m 181 756 l 163 738 l 138 738 l 138 1242 l 181 1285 l 310 1157 l 310 883 l 181 756 m 807 781 l 892 694 l 807 608 l 326 608 l 242 694 l 326 781 l 807 781 m 242 1346 l 283 1389 l 850 1389 l 892 1346 l 764 1217 l 369 1217 l 242 1346 m 892 43 l 850 0 l 283 0 l 242 43 l 369 172 l 764 172 l 892 43 m 953 633 l 971 651 l 996 651 l 996 146 l 953 104 l 824 232 l 824 506 l 953 633 z "},"6":{"ha":1133,"x_min":138,"x_max":996,"o":"m 181 104 l 138 146 l 138 651 l 163 651 l 181 633 l 310 506 l 310 232 l 181 104 m 181 756 l 163 738 l 138 738 l 138 1242 l 181 1285 l 310 1157 l 310 883 l 181 756 m 807 781 l 892 694 l 807 608 l 326 608 l 242 694 l 326 781 l 807 781 m 242 1346 l 283 1389 l 850 1389 l 892 1346 l 764 1217 l 369 1217 l 242 1346 m 892 43 l 850 0 l 283 0 l 242 43 l 369 172 l 764 172 l 892 43 m 953 633 l 971 651 l 996 651 l 996 146 l 953 104 l 824 232 l 824 506 l 953 633 z "},"7":{"ha":1133,"x_min":138,"x_max":996,"o":"m 181 756 l 163 738 l 138 738 l 138 1242 l 181 1285 l 310 1157 l 310 883 l 181 756 m 242 1346 l 283 1389 l 850 1389 l 892 1346 l 764 1217 l 369 1217 l 242 1346 m 953 1285 l 996 1243 l 996 738 l 971 738 l 953 756 l 824 883 l 824 1157 l 953 1285 m 953 633 l 971 651 l 996 651 l 996 146 l 953 104 l 824 232 l 824 506 l 953 633 z "},"8":{"ha":1133,"x_min":138,"x_max":996,"o":"m 181 104 l 138 146 l 138 651 l 163 651 l 181 633 l 310 506 l 310 232 l 181 104 m 181 756 l 163 738 l 138 738 l 138 1242 l 181 1285 l 310 1157 l 310 883 l 181 756 m 807 781 l 892 694 l 807 608 l 326 608 l 242 694 l 326 781 l 807 781 m 242 1346 l 283 1389 l 850 1389 l 892 1346 l 764 1217 l 369 1217 l 242 1346 m 892 43 l 850 0 l 283 0 l 242 43 l 369 172 l 764 172 l 892 43 m 953 1285 l 996 1243 l 996 738 l 971 738 l 953 756 l 824 883 l 824 1157 l 953 1285 m 953 633 l 971 651 l 996 651 l 996 146 l 953 104 l 824 232 l 824 506 l 953 633 z "},"9":{"ha":1133,"x_min":138,"x_max":996,"o":"m 181 756 l 163 738 l 138 738 l 138 1242 l 181 1285 l 310 1157 l 310 883 l 181 756 m 807 781 l 892 694 l 807 608 l 326 608 l 242 694 l 326 781 l 807 781 m 242 1346 l 283 1389 l 850 1389 l 892 1346 l 764 1217 l 369 1217 l 242 1346 m 892 43 l 850 0 l 283 0 l 242 43 l 369 172 l 764 172 l 892 43 m 953 1285 l 996 1243 l 996 738 l 971 738 l 953 756 l 824 883 l 824 1157 l 953 1285 m 953 633 l 971 651 l 996 651 l 996 146 l 953 104 l 824 232 l 824 506 l 953 633 z "}," ":{"ha":278,"x_min":0,"x_max":0,"o":""},"!":{"ha":1133,"x_min":0,"x_max":0,"o":""},"-":{"ha":1133,"x_min":242,"x_max":892,"o":"m 807 781 l 892 694 l 807 608 l 326 608 l 242 694 l 326 781 l 807 781 z "},".":{"ha":0,"x_min":-86,"x_max":86,"o":"m 79 119 q 83 111 79 119 q 86 86 86 103 q 79 53 86 69 q 61 25 72 36 q 33 7 50 14 q 0 0 17 0 q -33 7 -17 0 q -61 25 -50 14 q -79 53 -72 36 q -86 86 -86 69 q -79 119 -86 103 q -61 147 -72 136 q -33 165 -50 158 q 0 172 -17 172 q 33 165 17 172 q 61 147 50 158 q 79 119 72 136 z "},":":{"ha":278,"x_min":53,"x_max":225,"o":"m 218 996 q 225 963 225 979 q 218 929 225 946 q 200 901 211 913 q 172 883 189 890 q 139 876 156 876 q 106 883 122 876 q 78 901 89 890 q 60 929 67 913 q 53 963 53 946 q 60 996 53 979 q 78 1022 67 1011 q 106 1042 92 1035 q 139 1047 118 1047 q 172 1042 160 1047 q 200 1022 188 1035 q 218 996 211 1011 m 218 424 q 225 390 225 407 q 218 357 225 374 q 200 329 211 340 q 172 311 189 318 q 139 304 156 304 q 106 311 122 304 q 78 329 89 318 q 60 357 67 340 q 53 390 53 374 q 60 424 53 407 q 78 450 67 439 q 106 469 92 464 q 139 475 118 475 q 172 469 160 475 q 200 450 188 464 q 218 424 211 439 z "},"A":{"ha":1133,"x_min":138,"x_max":996,"o":"m 181 104 l 138 146 l 138 651 l 163 651 l 181 633 l 310 506 l 310 232 l 181 104 m 181 756 l 163 738 l 138 738 l 138 1242 l 181 1285 l 310 1157 l 310 883 l 181 756 m 807 781 l 892 694 l 807 608 l 326 608 l 242 694 l 326 781 l 807 781 m 242 1346 l 283 1389 l 850 1389 l 892 1346 l 764 1217 l 369 1217 l 242 1346 m 953 1285 l 996 1243 l 996 738 l 971 738 l 953 756 l 824 883 l 824 1157 l 953 1285 m 953 633 l 971 651 l 996 651 l 996 146 l 953 104 l 824 232 l 824 506 l 953 633 z "},"B":{"ha":1133,"x_min":138,"x_max":996,"o":"m 181 104 l 138 146 l 138 651 l 163 651 l 181 633 l 310 506 l 310 232 l 181 104 m 181 756 l 163 738 l 138 738 l 138 1242 l 181 1285 l 310 1157 l 310 883 l 181 756 m 807 781 l 892 694 l 807 608 l 326 608 l 242 694 l 326 781 l 807 781 m 892 43 l 850 0 l 283 0 l 242 43 l 369 172 l 764 172 l 892 43 m 953 633 l 971 651 l 996 651 l 996 146 l 953 104 l 824 232 l 824 506 l 953 633 z "},"C":{"ha":1133,"x_min":138,"x_max":892,"o":"m 181 104 l 138 146 l 138 651 l 163 651 l 181 633 l 310 506 l 310 232 l 181 104 m 807 781 l 892 694 l 807 608 l 326 608 l 242 694 l 326 781 l 807 781 m 892 43 l 850 0 l 283 0 l 242 43 l 369 172 l 764 172 l 892 43 z "},"D":{"ha":1133,"x_min":138,"x_max":996,"o":"m 181 104 l 138 146 l 138 651 l 163 651 l 181 633 l 310 506 l 310 232 l 181 104 m 807 781 l 892 694 l 807 608 l 326 608 l 242 694 l 326 781 l 807 781 m 892 43 l 850 0 l 283 0 l 242 43 l 369 172 l 764 172 l 892 43 m 953 1285 l 996 1243 l 996 738 l 971 738 l 953 756 l 824 883 l 824 1157 l 953 1285 m 953 633 l 971 651 l 996 651 l 996 146 l 953 104 l 824 232 l 824 506 l 953 633 z "},"E":{"ha":1133,"x_min":138,"x_max":892,"o":"m 181 104 l 138 146 l 138 651 l 163 651 l 181 633 l 310 506 l 310 232 l 181 104 m 181 756 l 163 738 l 138 738 l 138 1242 l 181 1285 l 310 1157 l 310 883 l 181 756 m 807 781 l 892 694 l 807 608 l 326 608 l 242 694 l 326 781 l 807 781 m 242 1346 l 283 1389 l 850 1389 l 892 1346 l 764 1217 l 369 1217 l 242 1346 m 892 43 l 850 0 l 283 0 l 242 43 l 369 172 l 764 172 l 892 43 z "},"F":{"ha":1133,"x_min":138,"x_max":892,"o":"m 181 104 l 138 146 l 138 651 l 163 651 l 181 633 l 310 506 l 310 232 l 181 104 m 181 756 l 163 738 l 138 738 l 138 1242 l 181 1285 l 310 1157 l 310 883 l 181 756 m 807 781 l 892 694 l 807 608 l 326 608 l 242 694 l 326 781 l 807 781 m 242 1346 l 283 1389 l 850 1389 l 892 1346 l 764 1217 l 369 1217 l 242 1346 z "},"G":{"ha":1133,"x_min":138,"x_max":996,"o":"m 181 104 l 138 146 l 138 651 l 163 651 l 181 633 l 310 506 l 310 232 l 181 104 m 181 756 l 163 738 l 138 738 l 138 1242 l 181 1285 l 310 1157 l 310 883 l 181 756 m 242 1346 l 283 1389 l 850 1389 l 892 1346 l 764 1217 l 369 1217 l 242 1346 m 892 43 l 850 0 l 283 0 l 242 43 l 369 172 l 764 172 l 892 43 m 953 633 l 971 651 l 996 651 l 996 146 l 953 104 l 824 232 l 824 506 l 953 633 z "},"H":{"ha":1133,"x_min":138,"x_max":996,"o":"m 181 104 l 138 146 l 138 651 l 163 651 l 181 633 l 310 506 l 310 232 l 181 104 m 181 756 l 163 738 l 138 738 l 138 1242 l 181 1285 l 310 1157 l 310 883 l 181 756 m 807 781 l 892 694 l 807 608 l 326 608 l 242 694 l 326 781 l 807 781 m 953 633 l 971 651 l 996 651 l 996 146 l 953 104 l 824 232 l 824 506 l 953 633 z "},"I":{"ha":1133,"x_min":824,"x_max":996,"o":"m 953 633 l 971 651 l 996 651 l 996 146 l 953 104 l 824 232 l 824 506 l 953 633 z "},"J":{"ha":1133,"x_min":138,"x_max":996,"o":"m 181 104 l 138 146 l 138 651 l 163 651 l 181 633 l 310 506 l 310 232 l 181 104 m 892 43 l 850 0 l 283 0 l 242 43 l 369 172 l 764 172 l 892 43 m 953 1285 l 996 1243 l 996 738 l 971 738 l 953 756 l 824 883 l 824 1157 l 953 1285 m 953 633 l 971 651 l 996 651 l 996 146 l 953 104 l 824 232 l 824 506 l 953 633 z "},"K":{"ha":1133,"x_min":138,"x_max":996,"o":"m 181 104 l 138 146 l 138 651 l 163 651 l 181 633 l 310 506 l 310 232 l 181 104 m 181 756 l 163 738 l 138 738 l 138 1242 l 181 1285 l 310 1157 l 310 883 l 181 756 m 807 781 l 892 694 l 807 608 l 326 608 l 242 694 l 326 781 l 807 781 m 242 1346 l 283 1389 l 850 1389 l 892 1346 l 764 1217 l 369 1217 l 242 1346 m 953 633 l 971 651 l 996 651 l 996 146 l 953 104 l 824 232 l 824 506 l 953 633 z "},"L":{"ha":1133,"x_min":138,"x_max":892,"o":"m 181 104 l 138 146 l 138 651 l 163 651 l 181 633 l 310 506 l 310 232 l 181 104 m 181 756 l 163 738 l 138 738 l 138 1242 l 181 1285 l 310 1157 l 310 883 l 181 756 m 892 43 l 850 0 l 283 0 l 242 43 l 369 172 l 764 172 l 892 43 z "},"M":{"ha":1133,"x_min":138,"x_max":996,"o":"m 181 104 l 138 146 l 138 651 l 163 651 l 181 633 l 310 506 l 310 232 l 181 104 m 181 756 l 163 738 l 138 738 l 138 1242 l 181 1285 l 310 1157 l 310 883 l 181 756 m 242 1346 l 283 1389 l 850 1389 l 892 1346 l 764 1217 l 369 1217 l 242 1346 m 953 1285 l 996 1243 l 996 738 l 971 738 l 953 756 l 824 883 l 824 1157 l 953 1285 m 953 633 l 971 651 l 996 651 l 996 146 l 953 104 l 824 232 l 824 506 l 953 633 z "},"N":{"ha":1133,"x_min":138,"x_max":996,"o":"m 181 104 l 138 146 l 138 651 l 163 651 l 181 633 l 310 506 l 310 232 l 181 104 m 807 781 l 892 694 l 807 608 l 326 608 l 242 694 l 326 781 l 807 781 m 953 633 l 971 651 l 996 651 l 996 146 l 953 104 l 824 232 l 824 506 l 953 633 z "},"O":{"ha":1133,"x_min":138,"x_max":996,"o":"m 181 104 l 138 146 l 138 651 l 163 651 l 181 633 l 310 506 l 310 232 l 181 104 m 807 781 l 892 694 l 807 608 l 326 608 l 242 694 l 326 781 l 807 781 m 892 43 l 850 0 l 283 0 l 242 43 l 369 172 l 764 172 l 892 43 m 953 633 l 971 651 l 996 651 l 996 146 l 953 104 l 824 232 l 824 506 l 953 633 z "},"P":{"ha":1133,"x_min":138,"x_max":996,"o":"m 181 104 l 138 146 l 138 651 l 163 651 l 181 633 l 310 506 l 310 232 l 181 104 m 181 756 l 163 738 l 138 738 l 138 1242 l 181 1285 l 310 1157 l 310 883 l 181 756 m 807 781 l 892 694 l 807 608 l 326 608 l 242 694 l 326 781 l 807 781 m 242 1346 l 283 1389 l 850 1389 l 892 1346 l 764 1217 l 369 1217 l 242 1346 m 953 1285 l 996 1243 l 996 738 l 971 738 l 953 756 l 824 883 l 824 1157 l 953 1285 z "},"Q":{"ha":1133,"x_min":138,"x_max":996,"o":"m 181 756 l 163 738 l 138 738 l 138 1242 l 181 1285 l 310 1157 l 310 883 l 181 756 m 807 781 l 892 694 l 807 608 l 326 608 l 242 694 l 326 781 l 807 781 m 242 1346 l 283 1389 l 850 1389 l 892 1346 l 764 1217 l 369 1217 l 242 1346 m 953 1285 l 996 1243 l 996 738 l 971 738 l 953 756 l 824 883 l 824 1157 l 953 1285 m 953 633 l 971 651 l 996 651 l 996 146 l 953 104 l 824 232 l 824 506 l 953 633 z "},"R":{"ha":1133,"x_min":138,"x_max":892,"o":"m 181 104 l 138 146 l 138 651 l 163 651 l 181 633 l 310 506 l 310 232 l 181 104 m 807 781 l 892 694 l 807 608 l 326 608 l 242 694 l 326 781 l 807 781 z "},"S":{"ha":1133,"x_min":138,"x_max":996,"o":"m 181 756 l 163 738 l 138 738 l 138 1242 l 181 1285 l 310 1157 l 310 883 l 181 756 m 807 781 l 892 694 l 807 608 l 326 608 l 242 694 l 326 781 l 807 781 m 892 43 l 850 0 l 283 0 l 242 43 l 369 172 l 764 172 l 892 43 m 953 633 l 971 651 l 996 651 l 996 146 l 953 104 l 824 232 l 824 506 l 953 633 z "},"T":{"ha":1133,"x_min":138,"x_max":892,"o":"m 181 104 l 138 146 l 138 651 l 163 651 l 181 633 l 310 506 l 310 232 l 181 104 m 181 756 l 163 738 l 138 738 l 138 1242 l 181 1285 l 310 1157 l 310 883 l 181 756 m 807 781 l 892 694 l 807 608 l 326 608 l 242 694 l 326 781 l 807 781 m 892 43 l 850 0 l 283 0 l 242 43 l 369 172 l 764 172 l 892 43 z "},"U":{"ha":1133,"x_min":138,"x_max":996,"o":"m 181 104 l 138 146 l 138 651 l 163 651 l 181 633 l 310 506 l 310 232 l 181 104 m 892 43 l 850 0 l 283 0 l 242 43 l 369 172 l 764 172 l 892 43 m 953 633 l 971 651 l 996 651 l 996 146 l 953 104 l 824 232 l 824 506 l 953 633 z "},"V":{"ha":1133,"x_min":138,"x_max":996,"o":"m 181 104 l 138 146 l 138 651 l 163 651 l 181 633 l 310 506 l 310 232 l 181 104 m 181 756 l 163 738 l 138 738 l 138 1242 l 181 1285 l 310 1157 l 310 883 l 181 756 m 892 43 l 850 0 l 283 0 l 242 43 l 369 172 l 764 172 l 892 43 m 953 1285 l 996 1243 l 996 738 l 971 738 l 953 756 l 824 883 l 824 1157 l 953 1285 m 953 633 l 971 651 l 996 651 l 996 146 l 953 104 l 824 232 l 824 506 l 953 633 z "},"W":{"ha":1133,"x_min":138,"x_max":996,"o":"m 181 104 l 138 146 l 138 651 l 163 651 l 181 633 l 310 506 l 310 232 l 181 104 m 181 756 l 163 738 l 138 738 l 138 1242 l 181 1285 l 310 1157 l 310 883 l 181 756 m 807 781 l 892 694 l 807 608 l 326 608 l 242 694 l 326 781 l 807 781 m 892 43 l 850 0 l 283 0 l 242 43 l 369 172 l 764 172 l 892 43 m 953 1285 l 996 1243 l 996 738 l 971 738 l 953 756 l 824 883 l 824 1157 l 953 1285 m 953 633 l 971 651 l 996 651 l 996 146 l 953 104 l 824 232 l 824 506 l 953 633 z "},"X":{"ha":1133,"x_min":138,"x_max":996,"o":"m 181 104 l 138 146 l 138 651 l 163 651 l 181 633 l 310 506 l 310 232 l 181 104 m 181 756 l 163 738 l 138 738 l 138 1242 l 181 1285 l 310 1157 l 310 883 l 181 756 m 807 781 l 892 694 l 807 608 l 326 608 l 242 694 l 326 781 l 807 781 m 953 1285 l 996 1243 l 996 738 l 971 738 l 953 756 l 824 883 l 824 1157 l 953 1285 m 953 633 l 971 651 l 996 651 l 996 146 l 953 104 l 824 232 l 824 506 l 953 633 z "},"Y":{"ha":1133,"x_min":138,"x_max":996,"o":"m 181 756 l 163 738 l 138 738 l 138 1242 l 181 1285 l 310 1157 l 310 883 l 181 756 m 807 781 l 892 694 l 807 608 l 326 608 l 242 694 l 326 781 l 807 781 m 892 43 l 850 0 l 283 0 l 242 43 l 369 172 l 764 172 l 892 43 m 953 1285 l 996 1243 l 996 738 l 971 738 l 953 756 l 824 883 l 824 1157 l 953 1285 m 953 633 l 971 651 l 996 651 l 996 146 l 953 104 l 824 232 l 824 506 l 953 633 z "},"Z":{"ha":1133,"x_min":138,"x_max":996,"o":"m 181 104 l 138 146 l 138 651 l 163 651 l 181 633 l 310 506 l 310 232 l 181 104 m 242 1346 l 283 1389 l 850 1389 l 892 1346 l 764 1217 l 369 1217 l 242 1346 m 892 43 l 850 0 l 283 0 l 242 43 l 369 172 l 764 172 l 892 43 m 953 1285 l 996 1243 l 996 738 l 971 738 l 953 756 l 824 883 l 824 1157 l 953 1285 z "},"_":{"ha":1133,"x_min":242,"x_max":892,"o":"m 892 43 l 850 0 l 283 0 l 242 43 l 369 172 l 764 172 l 892 43 z "},"a":{"ha":1133,"x_min":138,"x_max":996,"o":"m 181 104 l 138 146 l 138 651 l 163 651 l 181 633 l 310 506 l 310 232 l 181 104 m 181 756 l 163 738 l 138 738 l 138 1242 l 181 1285 l 310 1157 l 310 883 l 181 756 m 807 781 l 892 694 l 807 608 l 326 608 l 242 694 l 326 781 l 807 781 m 242 1346 l 283 1389 l 850 1389 l 892 1346 l 764 1217 l 369 1217 l 242 1346 m 953 1285 l 996 1243 l 996 738 l 971 738 l 953 756 l 824 883 l 824 1157 l 953 1285 m 953 633 l 971 651 l 996 651 l 996 146 l 953 104 l 824 232 l 824 506 l 953 633 z "},"b":{"ha":1133,"x_min":138,"x_max":996,"o":"m 181 104 l 138 146 l 138 651 l 163 651 l 181 633 l 310 506 l 310 232 l 181 104 m 181 756 l 163 738 l 138 738 l 138 1242 l 181 1285 l 310 1157 l 310 883 l 181 756 m 807 781 l 892 694 l 807 608 l 326 608 l 242 694 l 326 781 l 807 781 m 892 43 l 850 0 l 283 0 l 242 43 l 369 172 l 764 172 l 892 43 m 953 633 l 971 651 l 996 651 l 996 146 l 953 104 l 824 232 l 824 506 l 953 633 z "},"c":{"ha":1133,"x_min":138,"x_max":892,"o":"m 181 104 l 138 146 l 138 651 l 163 651 l 181 633 l 310 506 l 310 232 l 181 104 m 807 781 l 892 694 l 807 608 l 326 608 l 242 694 l 326 781 l 807 781 m 892 43 l 850 0 l 283 0 l 242 43 l 369 172 l 764 172 l 892 43 z "},"d":{"ha":1133,"x_min":138,"x_max":996,"o":"m 181 104 l 138 146 l 138 651 l 163 651 l 181 633 l 310 506 l 310 232 l 181 104 m 807 781 l 892 694 l 807 608 l 326 608 l 242 694 l 326 781 l 807 781 m 892 43 l 850 0 l 283 0 l 242 43 l 369 172 l 764 172 l 892 43 m 953 1285 l 996 1243 l 996 738 l 971 738 l 953 756 l 824 883 l 824 1157 l 953 1285 m 953 633 l 971 651 l 996 651 l 996 146 l 953 104 l 824 232 l 824 506 l 953 633 z "},"e":{"ha":1133,"x_min":138,"x_max":892,"o":"m 181 104 l 138 146 l 138 651 l 163 651 l 181 633 l 310 506 l 310 232 l 181 104 m 181 756 l 163 738 l 138 738 l 138 1242 l 181 1285 l 310 1157 l 310 883 l 181 756 m 807 781 l 892 694 l 807 608 l 326 608 l 242 694 l 326 781 l 807 781 m 242 1346 l 283 1389 l 850 1389 l 892 1346 l 764 1217 l 369 1217 l 242 1346 m 892 43 l 850 0 l 283 0 l 242 43 l 369 172 l 764 172 l 892 43 z "},"f":{"ha":1133,"x_min":138,"x_max":892,"o":"m 181 104 l 138 146 l 138 651 l 163 651 l 181 633 l 310 506 l 310 232 l 181 104 m 181 756 l 163 738 l 138 738 l 138 1242 l 181 1285 l 310 1157 l 310 883 l 181 756 m 807 781 l 892 694 l 807 608 l 326 608 l 242 694 l 326 781 l 807 781 m 242 1346 l 283 1389 l 850 1389 l 892 1346 l 764 1217 l 369 1217 l 242 1346 z "},"g":{"ha":1133,"x_min":138,"x_max":996,"o":"m 181 104 l 138 146 l 138 651 l 163 651 l 181 633 l 310 506 l 310 232 l 181 104 m 181 756 l 163 738 l 138 738 l 138 1242 l 181 1285 l 310 1157 l 310 883 l 181 756 m 242 1346 l 283 1389 l 850 1389 l 892 1346 l 764 1217 l 369 1217 l 242 1346 m 892 43 l 850 0 l 283 0 l 242 43 l 369 172 l 764 172 l 892 43 m 953 633 l 971 651 l 996 651 l 996 146 l 953 104 l 824 232 l 824 506 l 953 633 z "},"h":{"ha":1133,"x_min":138,"x_max":996,"o":"m 181 104 l 138 146 l 138 651 l 163 651 l 181 633 l 310 506 l 310 232 l 181 104 m 181 756 l 163 738 l 138 738 l 138 1242 l 181 1285 l 310 1157 l 310 883 l 181 756 m 807 781 l 892 694 l 807 608 l 326 608 l 242 694 l 326 781 l 807 781 m 953 633 l 971 651 l 996 651 l 996 146 l 953 104 l 824 232 l 824 506 l 953 633 z "},"i":{"ha":1133,"x_min":824,"x_max":996,"o":"m 953 633 l 971 651 l 996 651 l 996 146 l 953 104 l 824 232 l 824 506 l 953 633 z "},"j":{"ha":1133,"x_min":138,"x_max":996,"o":"m 181 104 l 138 146 l 138 651 l 163 651 l 181 633 l 310 506 l 310 232 l 181 104 m 892 43 l 850 0 l 283 0 l 242 43 l 369 172 l 764 172 l 892 43 m 953 1285 l 996 1243 l 996 738 l 971 738 l 953 756 l 824 883 l 824 1157 l 953 1285 m 953 633 l 971 651 l 996 651 l 996 146 l 953 104 l 824 232 l 824 506 l 953 633 z "},"k":{"ha":1133,"x_min":138,"x_max":996,"o":"m 181 104 l 138 146 l 138 651 l 163 651 l 181 633 l 310 506 l 310 232 l 181 104 m 181 756 l 163 738 l 138 738 l 138 1242 l 181 1285 l 310 1157 l 310 883 l 181 756 m 807 781 l 892 694 l 807 608 l 326 608 l 242 694 l 326 781 l 807 781 m 242 1346 l 283 1389 l 850 1389 l 892 1346 l 764 1217 l 369 1217 l 242 1346 m 953 633 l 971 651 l 996 651 l 996 146 l 953 104 l 824 232 l 824 506 l 953 633 z "},"l":{"ha":1133,"x_min":138,"x_max":892,"o":"m 181 104 l 138 146 l 138 651 l 163 651 l 181 633 l 310 506 l 310 232 l 181 104 m 181 756 l 163 738 l 138 738 l 138 1242 l 181 1285 l 310 1157 l 310 883 l 181 756 m 892 43 l 850 0 l 283 0 l 242 43 l 369 172 l 764 172 l 892 43 z "},"m":{"ha":1133,"x_min":138,"x_max":996,"o":"m 181 104 l 138 146 l 138 651 l 163 651 l 181 633 l 310 506 l 310 232 l 181 104 m 181 756 l 163 738 l 138 738 l 138 1242 l 181 1285 l 310 1157 l 310 883 l 181 756 m 242 1346 l 283 1389 l 850 1389 l 892 1346 l 764 1217 l 369 1217 l 242 1346 m 953 1285 l 996 1243 l 996 738 l 971 738 l 953 756 l 824 883 l 824 1157 l 953 1285 m 953 633 l 971 651 l 996 651 l 996 146 l 953 104 l 824 232 l 824 506 l 953 633 z "},"n":{"ha":1133,"x_min":138,"x_max":996,"o":"m 181 104 l 138 146 l 138 651 l 163 651 l 181 633 l 310 506 l 310 232 l 181 104 m 807 781 l 892 694 l 807 608 l 326 608 l 242 694 l 326 781 l 807 781 m 953 633 l 971 651 l 996 651 l 996 146 l 953 104 l 824 232 l 824 506 l 953 633 z "},"o":{"ha":1133,"x_min":138,"x_max":996,"o":"m 181 104 l 138 146 l 138 651 l 163 651 l 181 633 l 310 506 l 310 232 l 181 104 m 807 781 l 892 694 l 807 608 l 326 608 l 242 694 l 326 781 l 807 781 m 892 43 l 850 0 l 283 0 l 242 43 l 369 172 l 764 172 l 892 43 m 953 633 l 971 651 l 996 651 l 996 146 l 953 104 l 824 232 l 824 506 l 953 633 z "},"p":{"ha":1133,"x_min":138,"x_max":996,"o":"m 181 104 l 138 146 l 138 651 l 163 651 l 181 633 l 310 506 l 310 232 l 181 104 m 181 756 l 163 738 l 138 738 l 138 1242 l 181 1285 l 310 1157 l 310 883 l 181 756 m 807 781 l 892 694 l 807 608 l 326 608 l 242 694 l 326 781 l 807 781 m 242 1346 l 283 1389 l 850 1389 l 892 1346 l 764 1217 l 369 1217 l 242 1346 m 953 1285 l 996 1243 l 996 738 l 971 738 l 953 756 l 824 883 l 824 1157 l 953 1285 z "},"q":{"ha":1133,"x_min":138,"x_max":996,"o":"m 181 756 l 163 738 l 138 738 l 138 1242 l 181 1285 l 310 1157 l 310 883 l 181 756 m 807 781 l 892 694 l 807 608 l 326 608 l 242 694 l 326 781 l 807 781 m 242 1346 l 283 1389 l 850 1389 l 892 1346 l 764 1217 l 369 1217 l 242 1346 m 953 1285 l 996 1243 l 996 738 l 971 738 l 953 756 l 824 883 l 824 1157 l 953 1285 m 953 633 l 971 651 l 996 651 l 996 146 l 953 104 l 824 232 l 824 506 l 953 633 z "},"r":{"ha":1133,"x_min":138,"x_max":892,"o":"m 181 104 l 138 146 l 138 651 l 163 651 l 181 633 l 310 506 l 310 232 l 181 104 m 807 781 l 892 694 l 807 608 l 326 608 l 242 694 l 326 781 l 807 781 z "},"s":{"ha":1133,"x_min":138,"x_max":996,"o":"m 181 756 l 163 738 l 138 738 l 138 1242 l 181 1285 l 310 1157 l 310 883 l 181 756 m 807 781 l 892 694 l 807 608 l 326 608 l 242 694 l 326 781 l 807 781 m 892 43 l 850 0 l 283 0 l 242 43 l 369 172 l 764 172 l 892 43 m 953 633 l 971 651 l 996 651 l 996 146 l 953 104 l 824 232 l 824 506 l 953 633 z "},"t":{"ha":1133,"x_min":138,"x_max":892,"o":"m 181 104 l 138 146 l 138 651 l 163 651 l 181 633 l 310 506 l 310 232 l 181 104 m 181 756 l 163 738 l 138 738 l 138 1242 l 181 1285 l 310 1157 l 310 883 l 181 756 m 807 781 l 892 694 l 807 608 l 326 608 l 242 694 l 326 781 l 807 781 m 892 43 l 850 0 l 283 0 l 242 43 l 369 172 l 764 172 l 892 43 z "},"u":{"ha":1133,"x_min":138,"x_max":996,"o":"m 181 104 l 138 146 l 138 651 l 163 651 l 181 633 l 310 506 l 310 232 l 181 104 m 892 43 l 850 0 l 283 0 l 242 43 l 369 172 l 764 172 l 892 43 m 953 633 l 971 651 l 996 651 l 996 146 l 953 104 l 824 232 l 824 506 l 953 633 z "},"v":{"ha":1133,"x_min":138,"x_max":996,"o":"m 181 104 l 138 146 l 138 651 l 163 651 l 181 633 l 310 506 l 310 232 l 181 104 m 181 756 l 163 738 l 138 738 l 138 1242 l 181 1285 l 310 1157 l 310 883 l 181 756 m 892 43 l 850 0 l 283 0 l 242 43 l 369 172 l 764 172 l 892 43 m 953 1285 l 996 1243 l 996 738 l 971 738 l 953 756 l 824 883 l 824 1157 l 953 1285 m 953 633 l 971 651 l 996 651 l 996 146 l 953 104 l 824 232 l 824 506 l 953 633 z "},"w":{"ha":1133,"x_min":138,"x_max":996,"o":"m 181 104 l 138 146 l 138 651 l 163 651 l 181 633 l 310 506 l 310 232 l 181 104 m 181 756 l 163 738 l 138 738 l 138 1242 l 181 1285 l 310 1157 l 310 883 l 181 756 m 807 781 l 892 694 l 807 608 l 326 608 l 242 694 l 326 781 l 807 781 m 892 43 l 850 0 l 283 0 l 242 43 l 369 172 l 764 172 l 892 43 m 953 1285 l 996 1243 l 996 738 l 971 738 l 953 756 l 824 883 l 824 1157 l 953 1285 m 953 633 l 971 651 l 996 651 l 996 146 l 953 104 l 824 232 l 824 506 l 953 633 z "},"x":{"ha":1133,"x_min":138,"x_max":996,"o":"m 181 104 l 138 146 l 138 651 l 163 651 l 181 633 l 310 506 l 310 232 l 181 104 m 181 756 l 163 738 l 138 738 l 138 1242 l 181 1285 l 310 1157 l 310 883 l 181 756 m 807 781 l 892 694 l 807 608 l 326 608 l 242 694 l 326 781 l 807 781 m 953 1285 l 996 1243 l 996 738 l 971 738 l 953 756 l 824 883 l 824 1157 l 953 1285 m 953 633 l 971 651 l 996 651 l 996 146 l 953 104 l 824 232 l 824 506 l 953 633 z "},"y":{"ha":1133,"x_min":138,"x_max":996,"o":"m 181 756 l 163 738 l 138 738 l 138 1242 l 181 1285 l 310 1157 l 310 883 l 181 756 m 807 781 l 892 694 l 807 608 l 326 608 l 242 694 l 326 781 l 807 781 m 892 43 l 850 0 l 283 0 l 242 43 l 369 172 l 764 172 l 892 43 m 953 1285 l 996 1243 l 996 738 l 971 738 l 953 756 l 824 883 l 824 1157 l 953 1285 m 953 633 l 971 651 l 996 651 l 996 146 l 953 104 l 824 232 l 824 506 l 953 633 z "},"z":{"ha":1133,"x_min":138,"x_max":996,"o":"m 181 104 l 138 146 l 138 651 l 163 651 l 181 633 l 310 506 l 310 232 l 181 104 m 242 1346 l 283 1389 l 850 1389 l 892 1346 l 764 1217 l 369 1217 l 242 1346 m 892 43 l 850 0 l 283 0 l 242 43 l 369 172 l 764 172 l 892 43 m 953 1285 l 996 1243 l 996 738 l 971 738 l 953 756 l 824 883 l 824 1157 l 953 1285 z "},"°":{"ha":1133,"x_min":138,"x_max":996,"o":"m 181 756 l 163 738 l 138 738 l 138 1242 l 181 1285 l 310 1157 l 310 883 l 181 756 m 807 781 l 892 694 l 807 608 l 326 608 l 242 694 l 326 781 l 807 781 m 242 1346 l 283 1389 l 850 1389 l 892 1346 l 764 1217 l 369 1217 l 242 1346 m 953 1285 l 996 1243 l 996 738 l 971 738 l 953 756 l 824 883 l 824 1157 l 953 1285 z "}}}
